solid OpenSCAD_Model
  facet normal 0.994522 -0 0.104524
    outer loop
      vertex -25.4437 -7.8 9.61582
      vertex -25.4 7.8 9.2
      vertex -25.4437 7.8 9.61582
    endloop
  endfacet
  facet normal 0.994522 0 0.104524
    outer loop
      vertex -25.4 7.8 9.2
      vertex -25.4437 -7.8 9.61582
      vertex -25.4 -7.8 9.2
    endloop
  endfacet
  facet normal 0.951055 -0 0.30902
    outer loop
      vertex -25.5729 -7.8 10.0135
      vertex -25.4437 7.8 9.61582
      vertex -25.5729 7.8 10.0135
    endloop
  endfacet
  facet normal 0.951055 0 0.30902
    outer loop
      vertex -25.4437 7.8 9.61582
      vertex -25.5729 -7.8 10.0135
      vertex -25.4437 -7.8 9.61582
    endloop
  endfacet
  facet normal 0.587787 0 0.809016
    outer loop
      vertex -26.4 7.8 10.9321
      vertex -26.0617 -7.8 10.6863
      vertex -26.0617 7.8 10.6863
    endloop
  endfacet
  facet normal 0.587787 0 0.809016
    outer loop
      vertex -26.0617 -7.8 10.6863
      vertex -26.4 7.8 10.9321
      vertex -26.4 -7.8 10.9321
    endloop
  endfacet
  facet normal -0.406737 0 0.913545
    outer loop
      vertex -28.4 7.8 10.9321
      vertex -28.018 -7.8 11.1021
      vertex -28.018 7.8 11.1021
    endloop
  endfacet
  facet normal -0.406737 0 0.913545
    outer loop
      vertex -28.018 -7.8 11.1021
      vertex -28.4 7.8 10.9321
      vertex -28.4 -7.8 10.9321
    endloop
  endfacet
  facet normal 0.866026 -0 0.499999
    outer loop
      vertex -25.782 -7.8 10.3756
      vertex -25.5729 7.8 10.0135
      vertex -25.782 7.8 10.3756
    endloop
  endfacet
  facet normal 0.866026 0 0.499999
    outer loop
      vertex -25.5729 7.8 10.0135
      vertex -25.782 -7.8 10.3756
      vertex -25.5729 -7.8 10.0135
    endloop
  endfacet
  facet normal 0.207911 0 0.978148
    outer loop
      vertex -27.1909 7.8 11.189
      vertex -26.782 -7.8 11.1021
      vertex -26.782 7.8 11.1021
    endloop
  endfacet
  facet normal 0.207911 0 0.978148
    outer loop
      vertex -26.782 -7.8 11.1021
      vertex -27.1909 7.8 11.189
      vertex -27.1909 -7.8 11.189
    endloop
  endfacet
  facet normal 0.406735 0 0.913546
    outer loop
      vertex -26.782 7.8 11.1021
      vertex -26.4 -7.8 10.9321
      vertex -26.4 7.8 10.9321
    endloop
  endfacet
  facet normal 0.406735 0 0.913546
    outer loop
      vertex -26.4 -7.8 10.9321
      vertex -26.782 7.8 11.1021
      vertex -26.782 -7.8 11.1021
    endloop
  endfacet
  facet normal -0.951057 0 0.309016
    outer loop
      vertex -29.3563 -7.8 9.61582
      vertex -29.2271 7.8 10.0135
      vertex -29.3563 7.8 9.61582
    endloop
  endfacet
  facet normal -0.951057 0 0.309016
    outer loop
      vertex -29.2271 7.8 10.0135
      vertex -29.3563 -7.8 9.61582
      vertex -29.2271 -7.8 10.0135
    endloop
  endfacet
  facet normal 0 1 0
    outer loop
      vertex -25.4 7.8 9.2
      vertex -25.4 7.8 1.6
      vertex -26.6 7.8 9.2
    endloop
  endfacet
  facet normal 0 1 0
    outer loop
      vertex -26.6 7.8 9.2
      vertex -25.4 7.8 1.6
      vertex -26.6 7.8 1.6
    endloop
  endfacet
  facet normal 0 1 0
    outer loop
      vertex -27.3164 7.8 9.99562
      vertex -27.1909 7.8 11.189
      vertex -26.782 7.8 11.1021
    endloop
  endfacet
  facet normal 0 1 0
    outer loop
      vertex -27.1909 7.8 11.189
      vertex -27.3164 7.8 9.99562
      vertex -27.6091 7.8 11.189
    endloop
  endfacet
  facet normal 0 1 0
    outer loop
      vertex -27.1528 7.8 9.96084
      vertex -26.782 7.8 11.1021
      vertex -26.4 7.8 10.9321
    endloop
  endfacet
  facet normal 0 1 -0
    outer loop
      vertex -27.4836 7.8 9.99562
      vertex -27.6091 7.8 11.189
      vertex -27.3164 7.8 9.99562
    endloop
  endfacet
  facet normal 0 1 0
    outer loop
      vertex -27 7.8 9.89282
      vertex -26.4 7.8 10.9321
      vertex -26.0617 7.8 10.6863
    endloop
  endfacet
  facet normal 0 1 0
    outer loop
      vertex -27.6091 7.8 11.189
      vertex -27.4836 7.8 9.99562
      vertex -28.018 7.8 11.1021
    endloop
  endfacet
  facet normal 0 1 0
    outer loop
      vertex -26.8647 7.8 9.79452
      vertex -26.0617 7.8 10.6863
      vertex -25.782 7.8 10.3756
    endloop
  endfacet
  facet normal 0 1 -0
    outer loop
      vertex -27.6472 7.8 9.96084
      vertex -28.018 7.8 11.1021
      vertex -27.4836 7.8 9.99562
    endloop
  endfacet
  facet normal 0 1 0
    outer loop
      vertex -26.7528 7.8 9.67023
      vertex -25.782 7.8 10.3756
      vertex -25.5729 7.8 10.0135
    endloop
  endfacet
  facet normal 0 1 0
    outer loop
      vertex -28.018 7.8 11.1021
      vertex -27.6472 7.8 9.96084
      vertex -28.4 7.8 10.9321
    endloop
  endfacet
  facet normal 0 1 -0
    outer loop
      vertex -27.8 7.8 9.89282
      vertex -28.4 7.8 10.9321
      vertex -27.6472 7.8 9.96084
    endloop
  endfacet
  facet normal 0 1 0
    outer loop
      vertex -26.782 7.8 11.1021
      vertex -27.1528 7.8 9.96084
      vertex -27.3164 7.8 9.99562
    endloop
  endfacet
  facet normal 0 1 0
    outer loop
      vertex -26.4 7.8 10.9321
      vertex -27 7.8 9.89282
      vertex -27.1528 7.8 9.96084
    endloop
  endfacet
  facet normal 0 1 0
    outer loop
      vertex -26.0617 7.8 10.6863
      vertex -26.8647 7.8 9.79452
      vertex -27 7.8 9.89282
    endloop
  endfacet
  facet normal 0 1 0
    outer loop
      vertex -25.782 7.8 10.3756
      vertex -26.7528 7.8 9.67023
      vertex -26.8647 7.8 9.79452
    endloop
  endfacet
  facet normal 0 1 0
    outer loop
      vertex -26.6692 7.8 9.52539
      vertex -25.5729 7.8 10.0135
      vertex -25.4437 7.8 9.61582
    endloop
  endfacet
  facet normal 0 1 0
    outer loop
      vertex -25.5729 7.8 10.0135
      vertex -26.6692 7.8 9.52539
      vertex -26.7528 7.8 9.67023
    endloop
  endfacet
  facet normal 0 1 0
    outer loop
      vertex -25.4437 7.8 9.61582
      vertex -26.6175 7.8 9.36633
      vertex -26.6692 7.8 9.52539
    endloop
  endfacet
  facet normal 0 1 0
    outer loop
      vertex -25.4 7.8 9.2
      vertex -26.6175 7.8 9.36633
      vertex -25.4437 7.8 9.61582
    endloop
  endfacet
  facet normal 0 1 0
    outer loop
      vertex -26.6175 7.8 9.36633
      vertex -25.4 7.8 9.2
      vertex -26.6 7.8 9.2
    endloop
  endfacet
  facet normal 0 1 0
    outer loop
      vertex -28.4 7.8 10.9321
      vertex -27.8 7.8 9.89282
      vertex -28.7383 7.8 10.6863
    endloop
  endfacet
  facet normal 0 1 -0
    outer loop
      vertex -27.9353 7.8 9.79452
      vertex -28.7383 7.8 10.6863
      vertex -27.8 7.8 9.89282
    endloop
  endfacet
  facet normal 0 1 0
    outer loop
      vertex -28.7383 7.8 10.6863
      vertex -27.9353 7.8 9.79452
      vertex -29.018 7.8 10.3756
    endloop
  endfacet
  facet normal 0 1 -0
    outer loop
      vertex -28.0472 7.8 9.67023
      vertex -29.018 7.8 10.3756
      vertex -27.9353 7.8 9.79452
    endloop
  endfacet
  facet normal 0 1 0
    outer loop
      vertex -29.018 7.8 10.3756
      vertex -28.0472 7.8 9.67023
      vertex -29.2271 7.8 10.0135
    endloop
  endfacet
  facet normal 0 1 -0
    outer loop
      vertex -28.1308 7.8 9.52539
      vertex -29.2271 7.8 10.0135
      vertex -28.0472 7.8 9.67023
    endloop
  endfacet
  facet normal 0 1 0
    outer loop
      vertex -29.2271 7.8 10.0135
      vertex -28.1308 7.8 9.52539
      vertex -29.3563 7.8 9.61582
    endloop
  endfacet
  facet normal 0 1 -0
    outer loop
      vertex -28.1825 7.8 9.36633
      vertex -29.3563 7.8 9.61582
      vertex -28.1308 7.8 9.52539
    endloop
  endfacet
  facet normal 0 1 -0
    outer loop
      vertex -28.2 7.8 9.2
      vertex -29.3563 7.8 9.61582
      vertex -28.1825 7.8 9.36633
    endloop
  endfacet
  facet normal 0 1 0
    outer loop
      vertex -28.2 7.8 9.2
      vertex -29.4 7.8 9.2
      vertex -29.3563 7.8 9.61582
    endloop
  endfacet
  facet normal 0 1 -0
    outer loop
      vertex -28.2 7.8 0
      vertex -29.4 7.8 9.2
      vertex -28.2 7.8 9.2
    endloop
  endfacet
  facet normal 0 1 0
    outer loop
      vertex -29.4 7.8 9.2
      vertex -28.2 7.8 0
      vertex -29.4 7.8 0
    endloop
  endfacet
  facet normal -0.866026 0 0.499999
    outer loop
      vertex -29.2271 -7.8 10.0135
      vertex -29.018 7.8 10.3756
      vertex -29.2271 7.8 10.0135
    endloop
  endfacet
  facet normal -0.866026 0 0.499999
    outer loop
      vertex -29.018 7.8 10.3756
      vertex -29.2271 -7.8 10.0135
      vertex -29.018 -7.8 10.3756
    endloop
  endfacet
  facet normal 0 -1 0
    outer loop
      vertex -27.4836 -7.8 9.99562
      vertex -27.6091 -7.8 11.189
      vertex -28.018 -7.8 11.1021
    endloop
  endfacet
  facet normal 0 -1 0
    outer loop
      vertex -27.6091 -7.8 11.189
      vertex -27.4836 -7.8 9.99562
      vertex -27.1909 -7.8 11.189
    endloop
  endfacet
  facet normal 0 -1 0
    outer loop
      vertex -27.6472 -7.8 9.96084
      vertex -28.018 -7.8 11.1021
      vertex -28.4 -7.8 10.9321
    endloop
  endfacet
  facet normal 0 -1 0
    outer loop
      vertex -27.3164 -7.8 9.99562
      vertex -27.1909 -7.8 11.189
      vertex -27.4836 -7.8 9.99562
    endloop
  endfacet
  facet normal 0 -1 0
    outer loop
      vertex -27.8 -7.8 9.89282
      vertex -28.4 -7.8 10.9321
      vertex -28.7383 -7.8 10.6863
    endloop
  endfacet
  facet normal 0 -1 -0
    outer loop
      vertex -27.1909 -7.8 11.189
      vertex -27.3164 -7.8 9.99562
      vertex -26.782 -7.8 11.1021
    endloop
  endfacet
  facet normal 0 -1 0
    outer loop
      vertex -27.9353 -7.8 9.79452
      vertex -28.7383 -7.8 10.6863
      vertex -29.018 -7.8 10.3756
    endloop
  endfacet
  facet normal 0 -1 0
    outer loop
      vertex -27.1528 -7.8 9.96084
      vertex -26.782 -7.8 11.1021
      vertex -27.3164 -7.8 9.99562
    endloop
  endfacet
  facet normal 0 -1 0
    outer loop
      vertex -28.0472 -7.8 9.67023
      vertex -29.018 -7.8 10.3756
      vertex -29.2271 -7.8 10.0135
    endloop
  endfacet
  facet normal 0 -1 -0
    outer loop
      vertex -26.782 -7.8 11.1021
      vertex -27.1528 -7.8 9.96084
      vertex -26.4 -7.8 10.9321
    endloop
  endfacet
  facet normal 0 -1 0
    outer loop
      vertex -27 -7.8 9.89282
      vertex -26.4 -7.8 10.9321
      vertex -27.1528 -7.8 9.96084
    endloop
  endfacet
  facet normal 0 -1 0
    outer loop
      vertex -28.018 -7.8 11.1021
      vertex -27.6472 -7.8 9.96084
      vertex -27.4836 -7.8 9.99562
    endloop
  endfacet
  facet normal 0 -1 0
    outer loop
      vertex -28.4 -7.8 10.9321
      vertex -27.8 -7.8 9.89282
      vertex -27.6472 -7.8 9.96084
    endloop
  endfacet
  facet normal 0 -1 0
    outer loop
      vertex -28.7383 -7.8 10.6863
      vertex -27.9353 -7.8 9.79452
      vertex -27.8 -7.8 9.89282
    endloop
  endfacet
  facet normal 0 -1 0
    outer loop
      vertex -29.018 -7.8 10.3756
      vertex -28.0472 -7.8 9.67023
      vertex -27.9353 -7.8 9.79452
    endloop
  endfacet
  facet normal 0 -1 0
    outer loop
      vertex -28.1308 -7.8 9.52539
      vertex -29.2271 -7.8 10.0135
      vertex -29.3563 -7.8 9.61582
    endloop
  endfacet
  facet normal 0 -1 0
    outer loop
      vertex -29.2271 -7.8 10.0135
      vertex -28.1308 -7.8 9.52539
      vertex -28.0472 -7.8 9.67023
    endloop
  endfacet
  facet normal 0 -1 0
    outer loop
      vertex -29.3563 -7.8 9.61582
      vertex -28.1825 -7.8 9.36633
      vertex -28.1308 -7.8 9.52539
    endloop
  endfacet
  facet normal 0 -1 0
    outer loop
      vertex -29.4 -7.8 9.2
      vertex -28.1825 -7.8 9.36633
      vertex -29.3563 -7.8 9.61582
    endloop
  endfacet
  facet normal 0 -1 0
    outer loop
      vertex -29.4 -7.8 9.2
      vertex -28.2 -7.8 9.2
      vertex -28.1825 -7.8 9.36633
    endloop
  endfacet
  facet normal 0 -1 0
    outer loop
      vertex -29.4 -7.8 0
      vertex -28.2 -7.8 9.2
      vertex -29.4 -7.8 9.2
    endloop
  endfacet
  facet normal 0 -1 -0
    outer loop
      vertex -28.2 -7.8 9.2
      vertex -29.4 -7.8 0
      vertex -28.2 -7.8 0
    endloop
  endfacet
  facet normal 0 -1 -0
    outer loop
      vertex -26.4 -7.8 10.9321
      vertex -27 -7.8 9.89282
      vertex -26.0617 -7.8 10.6863
    endloop
  endfacet
  facet normal 0 -1 0
    outer loop
      vertex -26.8647 -7.8 9.79452
      vertex -26.0617 -7.8 10.6863
      vertex -27 -7.8 9.89282
    endloop
  endfacet
  facet normal 0 -1 -0
    outer loop
      vertex -26.0617 -7.8 10.6863
      vertex -26.8647 -7.8 9.79452
      vertex -25.782 -7.8 10.3756
    endloop
  endfacet
  facet normal 0 -1 0
    outer loop
      vertex -26.7528 -7.8 9.67023
      vertex -25.782 -7.8 10.3756
      vertex -26.8647 -7.8 9.79452
    endloop
  endfacet
  facet normal 0 -1 -0
    outer loop
      vertex -25.782 -7.8 10.3756
      vertex -26.7528 -7.8 9.67023
      vertex -25.5729 -7.8 10.0135
    endloop
  endfacet
  facet normal 0 -1 0
    outer loop
      vertex -26.6692 -7.8 9.52539
      vertex -25.5729 -7.8 10.0135
      vertex -26.7528 -7.8 9.67023
    endloop
  endfacet
  facet normal 0 -1 -0
    outer loop
      vertex -25.5729 -7.8 10.0135
      vertex -26.6692 -7.8 9.52539
      vertex -25.4437 -7.8 9.61582
    endloop
  endfacet
  facet normal 0 -1 0
    outer loop
      vertex -26.6175 -7.8 9.36633
      vertex -25.4437 -7.8 9.61582
      vertex -26.6692 -7.8 9.52539
    endloop
  endfacet
  facet normal 0 -1 0
    outer loop
      vertex -26.6 -7.8 9.2
      vertex -25.4437 -7.8 9.61582
      vertex -26.6175 -7.8 9.36633
    endloop
  endfacet
  facet normal 0 -1 0
    outer loop
      vertex -26.6 -7.8 9.2
      vertex -25.4 -7.8 9.2
      vertex -25.4437 -7.8 9.61582
    endloop
  endfacet
  facet normal 0 -1 0
    outer loop
      vertex -26.6 -7.8 1.6
      vertex -25.4 -7.8 9.2
      vertex -26.6 -7.8 9.2
    endloop
  endfacet
  facet normal 0 -1 0
    outer loop
      vertex -25.4 -7.8 1.6
      vertex -25.4 -7.8 9.2
      vertex -26.6 -7.8 1.6
    endloop
  endfacet
  facet normal 0.743145 -0 0.66913
    outer loop
      vertex -26.0617 -7.8 10.6863
      vertex -25.782 7.8 10.3756
      vertex -26.0617 7.8 10.6863
    endloop
  endfacet
  facet normal 0.743145 0 0.66913
    outer loop
      vertex -25.782 7.8 10.3756
      vertex -26.0617 -7.8 10.6863
      vertex -25.782 -7.8 10.3756
    endloop
  endfacet
  facet normal -0 0 1
    outer loop
      vertex -27.6091 7.8 11.189
      vertex -27.1909 -7.8 11.189
      vertex -27.1909 7.8 11.189
    endloop
  endfacet
  facet normal 0 0 1
    outer loop
      vertex -27.1909 -7.8 11.189
      vertex -27.6091 7.8 11.189
      vertex -27.6091 -7.8 11.189
    endloop
  endfacet
  facet normal -0.20791 0 0.978148
    outer loop
      vertex -28.018 7.8 11.1021
      vertex -27.6091 -7.8 11.189
      vertex -27.6091 7.8 11.189
    endloop
  endfacet
  facet normal -0.20791 0 0.978148
    outer loop
      vertex -27.6091 -7.8 11.189
      vertex -28.018 7.8 11.1021
      vertex -28.018 -7.8 11.1021
    endloop
  endfacet
  facet normal -0.994522 0 0.104529
    outer loop
      vertex -29.4 -7.8 9.2
      vertex -29.3563 7.8 9.61582
      vertex -29.4 7.8 9.2
    endloop
  endfacet
  facet normal -0.994522 0 0.104529
    outer loop
      vertex -29.3563 7.8 9.61582
      vertex -29.4 -7.8 9.2
      vertex -29.3563 -7.8 9.61582
    endloop
  endfacet
  facet normal -0.587787 0 0.809016
    outer loop
      vertex -28.7383 7.8 10.6863
      vertex -28.4 -7.8 10.9321
      vertex -28.4 7.8 10.9321
    endloop
  endfacet
  facet normal -0.587787 0 0.809016
    outer loop
      vertex -28.4 -7.8 10.9321
      vertex -28.7383 7.8 10.6863
      vertex -28.7383 -7.8 10.6863
    endloop
  endfacet
  facet normal -0.743143 0 0.669133
    outer loop
      vertex -29.018 -7.8 10.3756
      vertex -28.7383 7.8 10.6863
      vertex -29.018 7.8 10.3756
    endloop
  endfacet
  facet normal -0.743143 0 0.669133
    outer loop
      vertex -28.7383 7.8 10.6863
      vertex -29.018 -7.8 10.3756
      vertex -28.7383 -7.8 10.6863
    endloop
  endfacet
  facet normal -0.994521 0 -0.104533
    outer loop
      vertex -26.6 -7.8 9.2
      vertex -26.6175 7.8 9.36633
      vertex -26.6 7.8 9.2
    endloop
  endfacet
  facet normal -0.994521 -0 -0.104533
    outer loop
      vertex -26.6175 7.8 9.36633
      vertex -26.6 -7.8 9.2
      vertex -26.6175 -7.8 9.36633
    endloop
  endfacet
  facet normal -0.951057 0 -0.309017
    outer loop
      vertex -26.6175 -7.8 9.36633
      vertex -26.6692 7.8 9.52539
      vertex -26.6175 7.8 9.36633
    endloop
  endfacet
  facet normal -0.951057 -0 -0.309017
    outer loop
      vertex -26.6692 7.8 9.52539
      vertex -26.6175 -7.8 9.36633
      vertex -26.6692 -7.8 9.52539
    endloop
  endfacet
  facet normal 0.994523 0 -0.104522
    outer loop
      vertex -28.1825 -7.8 9.36633
      vertex -28.2 7.8 9.2
      vertex -28.1825 7.8 9.36633
    endloop
  endfacet
  facet normal 0.994523 0 -0.104522
    outer loop
      vertex -28.2 7.8 9.2
      vertex -28.1825 -7.8 9.36633
      vertex -28.2 -7.8 9.2
    endloop
  endfacet
  facet normal -0.743142 0 -0.669133
    outer loop
      vertex -26.7528 -7.8 9.67023
      vertex -26.8647 7.8 9.79452
      vertex -26.7528 7.8 9.67023
    endloop
  endfacet
  facet normal -0.743142 -0 -0.669133
    outer loop
      vertex -26.8647 7.8 9.79452
      vertex -26.7528 -7.8 9.67023
      vertex -26.8647 -7.8 9.79452
    endloop
  endfacet
  facet normal 0.207909 0 -0.978148
    outer loop
      vertex -27.6472 -7.8 9.96084
      vertex -27.4836 7.8 9.99562
      vertex -27.4836 -7.8 9.99562
    endloop
  endfacet
  facet normal 0.207909 0 -0.978148
    outer loop
      vertex -27.4836 7.8 9.99562
      vertex -27.6472 -7.8 9.96084
      vertex -27.6472 7.8 9.96084
    endloop
  endfacet
  facet normal -0.866028 0 -0.499995
    outer loop
      vertex -26.6692 -7.8 9.52539
      vertex -26.7528 7.8 9.67023
      vertex -26.6692 7.8 9.52539
    endloop
  endfacet
  facet normal -0.866028 -0 -0.499995
    outer loop
      vertex -26.7528 7.8 9.67023
      vertex -26.6692 -7.8 9.52539
      vertex -26.7528 -7.8 9.67023
    endloop
  endfacet
  facet normal -0.40674 0 -0.913544
    outer loop
      vertex -27.1528 -7.8 9.96084
      vertex -27 7.8 9.89282
      vertex -27 -7.8 9.89282
    endloop
  endfacet
  facet normal -0.40674 0 -0.913544
    outer loop
      vertex -27 7.8 9.89282
      vertex -27.1528 -7.8 9.96084
      vertex -27.1528 7.8 9.96084
    endloop
  endfacet
  facet normal -0.587785 0 -0.809017
    outer loop
      vertex -27 -7.8 9.89282
      vertex -26.8647 7.8 9.79452
      vertex -26.8647 -7.8 9.79452
    endloop
  endfacet
  facet normal -0.587785 0 -0.809017
    outer loop
      vertex -26.8647 7.8 9.79452
      vertex -27 -7.8 9.89282
      vertex -27 7.8 9.89282
    endloop
  endfacet
  facet normal 0.866023 0 -0.500004
    outer loop
      vertex -28.0472 -7.8 9.67023
      vertex -28.1308 7.8 9.52539
      vertex -28.0472 7.8 9.67023
    endloop
  endfacet
  facet normal 0.866023 0 -0.500004
    outer loop
      vertex -28.1308 7.8 9.52539
      vertex -28.0472 -7.8 9.67023
      vertex -28.1308 -7.8 9.52539
    endloop
  endfacet
  facet normal 0.743148 0 -0.669127
    outer loop
      vertex -27.9353 -7.8 9.79452
      vertex -28.0472 7.8 9.67023
      vertex -27.9353 7.8 9.79452
    endloop
  endfacet
  facet normal 0.743148 0 -0.669127
    outer loop
      vertex -28.0472 7.8 9.67023
      vertex -27.9353 -7.8 9.79452
      vertex -28.0472 -7.8 9.67023
    endloop
  endfacet
  facet normal -0.207909 0 -0.978148
    outer loop
      vertex -27.3164 -7.8 9.99562
      vertex -27.1528 7.8 9.96084
      vertex -27.1528 -7.8 9.96084
    endloop
  endfacet
  facet normal -0.207909 0 -0.978148
    outer loop
      vertex -27.1528 7.8 9.96084
      vertex -27.3164 -7.8 9.99562
      vertex -27.3164 7.8 9.99562
    endloop
  endfacet
  facet normal 0 0 -1
    outer loop
      vertex -27.4836 -7.8 9.99562
      vertex -27.3164 7.8 9.99562
      vertex -27.3164 -7.8 9.99562
    endloop
  endfacet
  facet normal -0 0 -1
    outer loop
      vertex -27.3164 7.8 9.99562
      vertex -27.4836 -7.8 9.99562
      vertex -27.4836 7.8 9.99562
    endloop
  endfacet
  facet normal 0.951057 0 -0.309017
    outer loop
      vertex -28.1308 -7.8 9.52539
      vertex -28.1825 7.8 9.36633
      vertex -28.1308 7.8 9.52539
    endloop
  endfacet
  facet normal 0.951057 0 -0.309017
    outer loop
      vertex -28.1825 7.8 9.36633
      vertex -28.1308 -7.8 9.52539
      vertex -28.1825 -7.8 9.36633
    endloop
  endfacet
  facet normal 0.40674 0 -0.913544
    outer loop
      vertex -27.8 -7.8 9.89282
      vertex -27.6472 7.8 9.96084
      vertex -27.6472 -7.8 9.96084
    endloop
  endfacet
  facet normal 0.40674 0 -0.913544
    outer loop
      vertex -27.6472 7.8 9.96084
      vertex -27.8 -7.8 9.89282
      vertex -27.8 7.8 9.89282
    endloop
  endfacet
  facet normal 0.58778 0 -0.809021
    outer loop
      vertex -27.9353 -7.8 9.79452
      vertex -27.8 7.8 9.89282
      vertex -27.8 -7.8 9.89282
    endloop
  endfacet
  facet normal 0.58778 0 -0.809021
    outer loop
      vertex -27.8 7.8 9.89282
      vertex -27.9353 -7.8 9.79452
      vertex -27.9353 7.8 9.79452
    endloop
  endfacet
  facet normal -1 0 0
    outer loop
      vertex -26.6 -7.8 1.6
      vertex -26.6 7.8 9.2
      vertex -26.6 7.8 1.6
    endloop
  endfacet
  facet normal -1 -0 0
    outer loop
      vertex -26.6 7.8 9.2
      vertex -26.6 -7.8 1.6
      vertex -26.6 -7.8 9.2
    endloop
  endfacet
  facet normal 1 -0 0
    outer loop
      vertex -25.4 -7.8 9.2
      vertex -25.4 7.8 1.6
      vertex -25.4 7.8 9.2
    endloop
  endfacet
  facet normal 1 0 0
    outer loop
      vertex -25.4 7.8 1.6
      vertex -25.4 -7.8 9.2
      vertex -25.4 -7.8 1.6
    endloop
  endfacet
  facet normal 0 0 -1
    outer loop
      vertex 26.1628 -12.098 0
      vertex 27.1 -11.1 0
      vertex 27.0921 -11.2253 0
    endloop
  endfacet
  facet normal -0 0 -1
    outer loop
      vertex 27.1 -11.1 0
      vertex 26.1628 -12.098 0
      vertex 27.1 11.1 0
    endloop
  endfacet
  facet normal 0 0 -1
    outer loop
      vertex 26.1628 -12.098 0
      vertex 27.0921 -11.2253 0
      vertex 27.0686 -11.3487 0
    endloop
  endfacet
  facet normal 0 0 -1
    outer loop
      vertex 26.1628 12.098 0
      vertex 27.1 11.1 0
      vertex 26.1628 -12.098 0
    endloop
  endfacet
  facet normal 0 0 -1
    outer loop
      vertex 26.1628 -12.098 0
      vertex 27.0686 -11.3487 0
      vertex 27.0298 -11.4681 0
    endloop
  endfacet
  facet normal 0 0 -1
    outer loop
      vertex 27.1 11.1 0
      vertex 26.1628 12.098 0
      vertex 27.0921 11.2253 0
    endloop
  endfacet
  facet normal 0 0 -1
    outer loop
      vertex 26.1628 -12.098 0
      vertex 27.0298 -11.4681 0
      vertex 26.9763 -11.5818 0
    endloop
  endfacet
  facet normal 0 0 -1
    outer loop
      vertex 27.0921 11.2253 0
      vertex 26.1628 12.098 0
      vertex 27.0686 11.3487 0
    endloop
  endfacet
  facet normal 0 0 -1
    outer loop
      vertex 26.1628 -12.098 0
      vertex 26.9763 -11.5818 0
      vertex 26.909 -11.6878 0
    endloop
  endfacet
  facet normal 0 0 -1
    outer loop
      vertex 27.0686 11.3487 0
      vertex 26.1628 12.098 0
      vertex 27.0298 11.4681 0
    endloop
  endfacet
  facet normal 0 0 -1
    outer loop
      vertex 26.1628 -12.098 0
      vertex 26.909 -11.6878 0
      vertex 26.829 -11.7845 0
    endloop
  endfacet
  facet normal 0 0 -1
    outer loop
      vertex 27.0298 11.4681 0
      vertex 26.1628 12.098 0
      vertex 26.9763 11.5818 0
    endloop
  endfacet
  facet normal 0 0 -1
    outer loop
      vertex 26.1628 -12.098 0
      vertex 26.829 -11.7845 0
      vertex 26.7374 -11.8705 0
    endloop
  endfacet
  facet normal 0 0 -1
    outer loop
      vertex 26.9763 11.5818 0
      vertex 26.1628 12.098 0
      vertex 26.909 11.6878 0
    endloop
  endfacet
  facet normal 0 0 -1
    outer loop
      vertex 26.1628 -12.098 0
      vertex 26.7374 -11.8705 0
      vertex 26.6358 -11.9443 0
    endloop
  endfacet
  facet normal 0 0 -1
    outer loop
      vertex 26.909 11.6878 0
      vertex 26.1628 12.098 0
      vertex 26.829 11.7845 0
    endloop
  endfacet
  facet normal 0 0 -1
    outer loop
      vertex 26.1628 -12.098 0
      vertex 26.6358 -11.9443 0
      vertex 26.5258 -12.0048 0
    endloop
  endfacet
  facet normal 0 0 -1
    outer loop
      vertex 26.829 11.7845 0
      vertex 26.1628 12.098 0
      vertex 26.7374 11.8705 0
    endloop
  endfacet
  facet normal 0 0 -1
    outer loop
      vertex 26.1628 -12.098 0
      vertex 26.5258 -12.0048 0
      vertex 26.409 -12.0511 0
    endloop
  endfacet
  facet normal 0 0 -1
    outer loop
      vertex 26.7374 11.8705 0
      vertex 26.1628 12.098 0
      vertex 26.6358 11.9443 0
    endloop
  endfacet
  facet normal 0 0 -1
    outer loop
      vertex 26.1628 -12.098 0
      vertex 26.409 -12.0511 0
      vertex 26.2874 -12.0823 0
    endloop
  endfacet
  facet normal 0 0 -1
    outer loop
      vertex 26.6358 11.9443 0
      vertex 26.1628 12.098 0
      vertex 26.5258 12.0048 0
    endloop
  endfacet
  facet normal 0 0 -1
    outer loop
      vertex 26.5258 12.0048 0
      vertex 26.1628 12.098 0
      vertex 26.409 12.0511 0
    endloop
  endfacet
  facet normal 0 0 -1
    outer loop
      vertex 26.409 12.0511 0
      vertex 26.1628 12.098 0
      vertex 26.2874 12.0823 0
    endloop
  endfacet
  facet normal 0 0 -1
    outer loop
      vertex -26.1628 -12.098 0
      vertex 26.1628 12.098 0
      vertex 26.1628 -12.098 0
    endloop
  endfacet
  facet normal 0 0 -1
    outer loop
      vertex -26.1628 -12.098 0
      vertex -26.1628 12.098 0
      vertex 26.1628 12.098 0
    endloop
  endfacet
  facet normal 0 0 -1
    outer loop
      vertex -27.1 -11.1 0
      vertex -26.1628 -12.098 0
      vertex -26.2874 -12.0823 0
    endloop
  endfacet
  facet normal 0 0 -1
    outer loop
      vertex -26.1628 -12.098 0
      vertex -27.1 -11.1 0
      vertex -26.1628 12.098 0
    endloop
  endfacet
  facet normal 0 0 -1
    outer loop
      vertex -27.1 -11.1 0
      vertex -26.2874 -12.0823 0
      vertex -26.409 -12.0511 0
    endloop
  endfacet
  facet normal 0 0 -1
    outer loop
      vertex -27.1 11.1 0
      vertex -26.1628 12.098 0
      vertex -27.1 -11.1 0
    endloop
  endfacet
  facet normal 0 0 -1
    outer loop
      vertex -27.1 -11.1 0
      vertex -26.409 -12.0511 0
      vertex -26.5258 -12.0048 0
    endloop
  endfacet
  facet normal 0 0 -1
    outer loop
      vertex -26.1628 12.098 0
      vertex -27.1 11.1 0
      vertex -26.2874 12.0823 0
    endloop
  endfacet
  facet normal 0 0 -1
    outer loop
      vertex -27.1 -11.1 0
      vertex -26.5258 -12.0048 0
      vertex -26.6358 -11.9443 0
    endloop
  endfacet
  facet normal 0 0 -1
    outer loop
      vertex -26.2874 12.0823 0
      vertex -27.1 11.1 0
      vertex -26.409 12.0511 0
    endloop
  endfacet
  facet normal 0 0 -1
    outer loop
      vertex -27.1 -11.1 0
      vertex -26.6358 -11.9443 0
      vertex -26.7374 -11.8705 0
    endloop
  endfacet
  facet normal 0 0 -1
    outer loop
      vertex -26.409 12.0511 0
      vertex -27.1 11.1 0
      vertex -26.5258 12.0048 0
    endloop
  endfacet
  facet normal 0 0 -1
    outer loop
      vertex -27.1 -11.1 0
      vertex -26.7374 -11.8705 0
      vertex -26.829 -11.7845 0
    endloop
  endfacet
  facet normal 0 0 -1
    outer loop
      vertex -26.5258 12.0048 0
      vertex -27.1 11.1 0
      vertex -26.6358 11.9443 0
    endloop
  endfacet
  facet normal 0 0 -1
    outer loop
      vertex -27.1 -11.1 0
      vertex -26.829 -11.7845 0
      vertex -26.909 -11.6878 0
    endloop
  endfacet
  facet normal 0 0 -1
    outer loop
      vertex -26.6358 11.9443 0
      vertex -27.1 11.1 0
      vertex -26.7374 11.8705 0
    endloop
  endfacet
  facet normal 0 0 -1
    outer loop
      vertex -27.1 -11.1 0
      vertex -26.909 -11.6878 0
      vertex -26.9763 -11.5818 0
    endloop
  endfacet
  facet normal 0 0 -1
    outer loop
      vertex -26.7374 11.8705 0
      vertex -27.1 11.1 0
      vertex -26.829 11.7845 0
    endloop
  endfacet
  facet normal 0 0 -1
    outer loop
      vertex -27.1 -11.1 0
      vertex -26.9763 -11.5818 0
      vertex -27.0298 -11.4681 0
    endloop
  endfacet
  facet normal 0 0 -1
    outer loop
      vertex -26.829 11.7845 0
      vertex -27.1 11.1 0
      vertex -26.909 11.6878 0
    endloop
  endfacet
  facet normal 0 0 -1
    outer loop
      vertex -27.1 -11.1 0
      vertex -27.0298 -11.4681 0
      vertex -27.0686 -11.3487 0
    endloop
  endfacet
  facet normal 0 0 -1
    outer loop
      vertex -26.909 11.6878 0
      vertex -27.1 11.1 0
      vertex -26.9763 11.5818 0
    endloop
  endfacet
  facet normal 0 0 -1
    outer loop
      vertex -27.1 -11.1 0
      vertex -27.0686 -11.3487 0
      vertex -27.0921 -11.2253 0
    endloop
  endfacet
  facet normal 0 0 -1
    outer loop
      vertex -26.9763 11.5818 0
      vertex -27.1 11.1 0
      vertex -27.0298 11.4681 0
    endloop
  endfacet
  facet normal 0 0 -1
    outer loop
      vertex -27.0298 11.4681 0
      vertex -27.1 11.1 0
      vertex -27.0686 11.3487 0
    endloop
  endfacet
  facet normal 0 0 -1
    outer loop
      vertex -27.0686 11.3487 0
      vertex -27.1 11.1 0
      vertex -27.0921 11.2253 0
    endloop
  endfacet
  facet normal -1 0 0
    outer loop
      vertex -29.4 6.8 1.03333
      vertex -29.4 7.8 0
      vertex -29.4 6.8 0.0333328
    endloop
  endfacet
  facet normal -1 0 0
    outer loop
      vertex -29.4 7.8 0
      vertex -29.4 -6.8 0.0333328
      vertex -29.4 6.8 0.0333328
    endloop
  endfacet
  facet normal -1 -0 0
    outer loop
      vertex -29.4 -6.8 0.0333328
      vertex -29.4 -7.8 0
      vertex -29.4 -6.8 1.03333
    endloop
  endfacet
  facet normal -1 0 0
    outer loop
      vertex -29.4 -7.8 0
      vertex -29.4 -6.8 0.0333328
      vertex -29.4 7.8 0
    endloop
  endfacet
  facet normal -1 0 0
    outer loop
      vertex -29.4 7.8 0
      vertex -29.4 6.8 1.03333
      vertex -29.4 7.8 9.2
    endloop
  endfacet
  facet normal -1 0 0
    outer loop
      vertex -29.4 -6.8 1.03333
      vertex -29.4 7.8 9.2
      vertex -29.4 6.8 1.03333
    endloop
  endfacet
  facet normal -1 0 0
    outer loop
      vertex -29.4 -6.8 1.03333
      vertex -29.4 -7.8 9.2
      vertex -29.4 7.8 9.2
    endloop
  endfacet
  facet normal -1 0 0
    outer loop
      vertex -29.4 -7.8 9.2
      vertex -29.4 -6.8 1.03333
      vertex -29.4 -7.8 0
    endloop
  endfacet
  facet normal 1 -0 0
    outer loop
      vertex -28.2 -7.8 9.2
      vertex -28.2 7.8 0
      vertex -28.2 7.8 9.2
    endloop
  endfacet
  facet normal 1 0 0
    outer loop
      vertex -28.2 7.8 0
      vertex -28.2 -7.8 9.2
      vertex -28.2 -7.8 0
    endloop
  endfacet
  facet normal 0 0 -1
    outer loop
      vertex -29.4 -7.8 0
      vertex -28.2 7.8 0
      vertex -28.2 -7.8 0
    endloop
  endfacet
  facet normal -0 0 -1
    outer loop
      vertex -28.2 7.8 0
      vertex -29.4 -7.8 0
      vertex -29.4 7.8 0
    endloop
  endfacet
  facet normal -1 0 0
    outer loop
      vertex -31.5 -6.8 0.0333328
      vertex -31.5 6.8 1.03333
      vertex -31.5 6.8 0.0333328
    endloop
  endfacet
  facet normal -1 -0 0
    outer loop
      vertex -31.5 6.8 1.03333
      vertex -31.5 -6.8 0.0333328
      vertex -31.5 -6.8 1.03333
    endloop
  endfacet
  facet normal -0 0 1
    outer loop
      vertex -31.5 6.8 1.03333
      vertex -29.4 -6.8 1.03333
      vertex -29.4 6.8 1.03333
    endloop
  endfacet
  facet normal 0 0 1
    outer loop
      vertex -29.4 -6.8 1.03333
      vertex -31.5 6.8 1.03333
      vertex -31.5 -6.8 1.03333
    endloop
  endfacet
  facet normal 0 0 -1
    outer loop
      vertex -31.5 -6.8 0.0333328
      vertex -29.4 6.8 0.0333328
      vertex -29.4 -6.8 0.0333328
    endloop
  endfacet
  facet normal -0 0 -1
    outer loop
      vertex -29.4 6.8 0.0333328
      vertex -31.5 -6.8 0.0333328
      vertex -31.5 6.8 0.0333328
    endloop
  endfacet
  facet normal 0 -1 0
    outer loop
      vertex -31.5 -6.8 0.0333328
      vertex -29.4 -6.8 1.03333
      vertex -31.5 -6.8 1.03333
    endloop
  endfacet
  facet normal 0 -1 -0
    outer loop
      vertex -29.4 -6.8 1.03333
      vertex -31.5 -6.8 0.0333328
      vertex -29.4 -6.8 0.0333328
    endloop
  endfacet
  facet normal 0 1 -0
    outer loop
      vertex -29.4 6.8 0.0333328
      vertex -31.5 6.8 1.03333
      vertex -29.4 6.8 1.03333
    endloop
  endfacet
  facet normal 0 1 0
    outer loop
      vertex -31.5 6.8 1.03333
      vertex -29.4 6.8 0.0333328
      vertex -31.5 6.8 0.0333328
    endloop
  endfacet
  facet normal -0.982288 -0.187378 0
    outer loop
      vertex -27.0686 -11.3487 0
      vertex -27.0921 -11.2253 1.6
      vertex -27.0921 -11.2253 0
    endloop
  endfacet
  facet normal -0.982288 -0.187378 0
    outer loop
      vertex -27.0921 -11.2253 1.6
      vertex -27.0686 -11.3487 0
      vertex -27.0686 -11.3487 1.6
    endloop
  endfacet
  facet normal -0.951056 -0.309017 0
    outer loop
      vertex -27.0298 -11.4681 0
      vertex -27.0686 -11.3487 1.6
      vertex -27.0686 -11.3487 0
    endloop
  endfacet
  facet normal -0.951056 -0.309017 0
    outer loop
      vertex -27.0686 -11.3487 1.6
      vertex -27.0298 -11.4681 0
      vertex -27.0298 -11.4681 1.6
    endloop
  endfacet
  facet normal -0.998027 -0.0627877 0
    outer loop
      vertex -27.0921 -11.2253 0
      vertex -27.1 -11.1 1.6
      vertex -27.1 -11.1 0
    endloop
  endfacet
  facet normal -0.998027 -0.0627877 0
    outer loop
      vertex -27.1 -11.1 1.6
      vertex -27.0921 -11.2253 0
      vertex -27.0921 -11.2253 1.6
    endloop
  endfacet
  facet normal 0 -1 0
    outer loop
      vertex -26.1628 -12.098 0
      vertex 26.1628 -12.098 1.6
      vertex -26.1628 -12.098 1.6
    endloop
  endfacet
  facet normal 0 -1 -0
    outer loop
      vertex 26.1628 -12.098 1.6
      vertex -26.1628 -12.098 0
      vertex 26.1628 -12.098 0
    endloop
  endfacet
  facet normal -0 0 1
    outer loop
      vertex 25.5 5.4 1.6
      vertex 26.7 -5.4 1.6
      vertex 26.7 5.4 1.6
    endloop
  endfacet
  facet normal 0 0 1
    outer loop
      vertex 26.7 -5.4 1.6
      vertex 25.5 5.4 1.6
      vertex 25.5 -5.4 1.6
    endloop
  endfacet
  facet normal 0 0 1
    outer loop
      vertex 26.1628 12.098 1.6
      vertex 27.1 11.1 1.6
      vertex 27.0921 11.2253 1.6
    endloop
  endfacet
  facet normal 0 0 1
    outer loop
      vertex 27.1 11.1 1.6
      vertex 26.7 5.4 1.6
      vertex 27.1 -11.1 1.6
    endloop
  endfacet
  facet normal 0 0 1
    outer loop
      vertex 26.1628 12.098 1.6
      vertex 27.0921 11.2253 1.6
      vertex 27.0686 11.3487 1.6
    endloop
  endfacet
  facet normal -0 0 1
    outer loop
      vertex 26.7 -5.4 1.6
      vertex 27.1 -11.1 1.6
      vertex 26.7 5.4 1.6
    endloop
  endfacet
  facet normal 0 0 1
    outer loop
      vertex 26.1628 12.098 1.6
      vertex 27.0686 11.3487 1.6
      vertex 27.0298 11.4681 1.6
    endloop
  endfacet
  facet normal -0 0 1
    outer loop
      vertex 26.7 -9.4 1.6
      vertex 27.1 -11.1 1.6
      vertex 26.7 -5.4 1.6
    endloop
  endfacet
  facet normal 0 0 1
    outer loop
      vertex 26.1628 12.098 1.6
      vertex 27.0298 11.4681 1.6
      vertex 26.9763 11.5818 1.6
    endloop
  endfacet
  facet normal -0 0 1
    outer loop
      vertex 25.5 -9.4 1.6
      vertex 27.1 -11.1 1.6
      vertex 26.7 -9.4 1.6
    endloop
  endfacet
  facet normal 0 0 1
    outer loop
      vertex 26.1628 12.098 1.6
      vertex 26.9763 11.5818 1.6
      vertex 26.909 11.6878 1.6
    endloop
  endfacet
  facet normal 0 -0 1
    outer loop
      vertex 26.1628 -12.098 1.6
      vertex 27.1 -11.1 1.6
      vertex 25.5 -9.4 1.6
    endloop
  endfacet
  facet normal 0 0 1
    outer loop
      vertex 26.1628 12.098 1.6
      vertex 26.909 11.6878 1.6
      vertex 26.829 11.7845 1.6
    endloop
  endfacet
  facet normal 0 0 1
    outer loop
      vertex 27.1 -11.1 1.6
      vertex 26.1628 -12.098 1.6
      vertex 27.0921 -11.2253 1.6
    endloop
  endfacet
  facet normal 0 0 1
    outer loop
      vertex 26.1628 12.098 1.6
      vertex 26.829 11.7845 1.6
      vertex 26.7374 11.8705 1.6
    endloop
  endfacet
  facet normal 0 0 1
    outer loop
      vertex 27.0921 -11.2253 1.6
      vertex 26.1628 -12.098 1.6
      vertex 27.0686 -11.3487 1.6
    endloop
  endfacet
  facet normal 0 0 1
    outer loop
      vertex 27.1 11.1 1.6
      vertex 26.7 9.4 1.6
      vertex 26.7 5.4 1.6
    endloop
  endfacet
  facet normal 0 0 1
    outer loop
      vertex 26.1628 12.098 1.6
      vertex 26.7374 11.8705 1.6
      vertex 26.6358 11.9443 1.6
    endloop
  endfacet
  facet normal 0 0 1
    outer loop
      vertex 26.1628 12.098 1.6
      vertex 26.6358 11.9443 1.6
      vertex 26.5258 12.0048 1.6
    endloop
  endfacet
  facet normal 0 0 1
    outer loop
      vertex 26.1628 12.098 1.6
      vertex 26.5258 12.0048 1.6
      vertex 26.409 12.0511 1.6
    endloop
  endfacet
  facet normal 0 0 1
    outer loop
      vertex 26.1628 12.098 1.6
      vertex 26.409 12.0511 1.6
      vertex 26.2874 12.0823 1.6
    endloop
  endfacet
  facet normal 0 0 1
    outer loop
      vertex 27.1 11.1 1.6
      vertex 26.1628 12.098 1.6
      vertex 25.5 9.4 1.6
    endloop
  endfacet
  facet normal 0 0 1
    outer loop
      vertex 27.1 11.1 1.6
      vertex 25.5 9.4 1.6
      vertex 26.7 9.4 1.6
    endloop
  endfacet
  facet normal -0 0 1
    outer loop
      vertex -25.4 7.8 1.6
      vertex 25.5 5.4 1.6
      vertex 25.5 9.4 1.6
    endloop
  endfacet
  facet normal 0 0 1
    outer loop
      vertex 25.5 5.4 1.6
      vertex -25.4 7.8 1.6
      vertex 25.5 -5.4 1.6
    endloop
  endfacet
  facet normal 0 0 1
    outer loop
      vertex -25.4 -7.8 1.6
      vertex 25.5 -5.4 1.6
      vertex -25.4 7.8 1.6
    endloop
  endfacet
  facet normal -0 0 1
    outer loop
      vertex -26.1628 12.098 1.6
      vertex 25.5 9.4 1.6
      vertex 26.1628 12.098 1.6
    endloop
  endfacet
  facet normal 0 0 1
    outer loop
      vertex 25.5 9.4 1.6
      vertex -26.1628 12.098 1.6
      vertex -25.4 7.8 1.6
    endloop
  endfacet
  facet normal 0 0 1
    outer loop
      vertex -27.1 11.1 1.6
      vertex -26.1628 12.098 1.6
      vertex -26.2874 12.0823 1.6
    endloop
  endfacet
  facet normal 0 0 1
    outer loop
      vertex -27.1 11.1 1.6
      vertex -26.2874 12.0823 1.6
      vertex -26.409 12.0511 1.6
    endloop
  endfacet
  facet normal 0 0 1
    outer loop
      vertex -27.1 11.1 1.6
      vertex -26.409 12.0511 1.6
      vertex -26.5258 12.0048 1.6
    endloop
  endfacet
  facet normal 0 0 1
    outer loop
      vertex -26.1628 12.098 1.6
      vertex -27.1 11.1 1.6
      vertex -25.4 7.8 1.6
    endloop
  endfacet
  facet normal 0 0 1
    outer loop
      vertex -25.4 7.8 1.6
      vertex -27.1 11.1 1.6
      vertex -26.6 7.8 1.6
    endloop
  endfacet
  facet normal 0 0 1
    outer loop
      vertex -27.1 11.1 1.6
      vertex -26.5258 12.0048 1.6
      vertex -26.6358 11.9443 1.6
    endloop
  endfacet
  facet normal 0 0 1
    outer loop
      vertex 27.0686 -11.3487 1.6
      vertex 26.1628 -12.098 1.6
      vertex 27.0298 -11.4681 1.6
    endloop
  endfacet
  facet normal 0 0 1
    outer loop
      vertex 27.0298 -11.4681 1.6
      vertex 26.1628 -12.098 1.6
      vertex 26.9763 -11.5818 1.6
    endloop
  endfacet
  facet normal 0 0 1
    outer loop
      vertex 26.9763 -11.5818 1.6
      vertex 26.1628 -12.098 1.6
      vertex 26.909 -11.6878 1.6
    endloop
  endfacet
  facet normal 0 0 1
    outer loop
      vertex 26.909 -11.6878 1.6
      vertex 26.1628 -12.098 1.6
      vertex 26.829 -11.7845 1.6
    endloop
  endfacet
  facet normal 0 0 1
    outer loop
      vertex 26.829 -11.7845 1.6
      vertex 26.1628 -12.098 1.6
      vertex 26.7374 -11.8705 1.6
    endloop
  endfacet
  facet normal 0 0 1
    outer loop
      vertex 26.7374 -11.8705 1.6
      vertex 26.1628 -12.098 1.6
      vertex 26.6358 -11.9443 1.6
    endloop
  endfacet
  facet normal 0 0 1
    outer loop
      vertex 26.6358 -11.9443 1.6
      vertex 26.1628 -12.098 1.6
      vertex 26.5258 -12.0048 1.6
    endloop
  endfacet
  facet normal 0 0 1
    outer loop
      vertex 26.5258 -12.0048 1.6
      vertex 26.1628 -12.098 1.6
      vertex 26.409 -12.0511 1.6
    endloop
  endfacet
  facet normal 0 0 1
    outer loop
      vertex 26.409 -12.0511 1.6
      vertex 26.1628 -12.098 1.6
      vertex 26.2874 -12.0823 1.6
    endloop
  endfacet
  facet normal 0 0 1
    outer loop
      vertex 25.5 -5.4 1.6
      vertex -25.4 -7.8 1.6
      vertex 25.5 -9.4 1.6
    endloop
  endfacet
  facet normal 0 0 1
    outer loop
      vertex -26.1628 -12.098 1.6
      vertex 25.5 -9.4 1.6
      vertex -25.4 -7.8 1.6
    endloop
  endfacet
  facet normal 0 0 1
    outer loop
      vertex 25.5 -9.4 1.6
      vertex -26.1628 -12.098 1.6
      vertex 26.1628 -12.098 1.6
    endloop
  endfacet
  facet normal -0 0 1
    outer loop
      vertex -27.1 -11.1 1.6
      vertex -26.1628 -12.098 1.6
      vertex -25.4 -7.8 1.6
    endloop
  endfacet
  facet normal 0 0 1
    outer loop
      vertex -26.1628 -12.098 1.6
      vertex -27.1 -11.1 1.6
      vertex -26.2874 -12.0823 1.6
    endloop
  endfacet
  facet normal 0 0 1
    outer loop
      vertex -26.2874 -12.0823 1.6
      vertex -27.1 -11.1 1.6
      vertex -26.409 -12.0511 1.6
    endloop
  endfacet
  facet normal 0 0 1
    outer loop
      vertex -27.1 -11.1 1.6
      vertex -25.4 -7.8 1.6
      vertex -26.6 -7.8 1.6
    endloop
  endfacet
  facet normal 0 0 1
    outer loop
      vertex -26.409 -12.0511 1.6
      vertex -27.1 -11.1 1.6
      vertex -26.5258 -12.0048 1.6
    endloop
  endfacet
  facet normal 0 0 1
    outer loop
      vertex -26.6 7.8 1.6
      vertex -27.1 11.1 1.6
      vertex -26.6 -7.8 1.6
    endloop
  endfacet
  facet normal 0 0 1
    outer loop
      vertex -27.1 11.1 1.6
      vertex -26.6358 11.9443 1.6
      vertex -26.7374 11.8705 1.6
    endloop
  endfacet
  facet normal 0 0 1
    outer loop
      vertex -27.1 -11.1 1.6
      vertex -26.6 -7.8 1.6
      vertex -27.1 11.1 1.6
    endloop
  endfacet
  facet normal 0 0 1
    outer loop
      vertex -27.1 11.1 1.6
      vertex -26.7374 11.8705 1.6
      vertex -26.829 11.7845 1.6
    endloop
  endfacet
  facet normal 0 0 1
    outer loop
      vertex -26.5258 -12.0048 1.6
      vertex -27.1 -11.1 1.6
      vertex -26.6358 -11.9443 1.6
    endloop
  endfacet
  facet normal 0 0 1
    outer loop
      vertex -27.1 11.1 1.6
      vertex -26.829 11.7845 1.6
      vertex -26.909 11.6878 1.6
    endloop
  endfacet
  facet normal 0 0 1
    outer loop
      vertex -26.6358 -11.9443 1.6
      vertex -27.1 -11.1 1.6
      vertex -26.7374 -11.8705 1.6
    endloop
  endfacet
  facet normal 0 0 1
    outer loop
      vertex -27.1 11.1 1.6
      vertex -26.909 11.6878 1.6
      vertex -26.9763 11.5818 1.6
    endloop
  endfacet
  facet normal 0 0 1
    outer loop
      vertex -26.7374 -11.8705 1.6
      vertex -27.1 -11.1 1.6
      vertex -26.829 -11.7845 1.6
    endloop
  endfacet
  facet normal 0 0 1
    outer loop
      vertex -27.1 11.1 1.6
      vertex -26.9763 11.5818 1.6
      vertex -27.0298 11.4681 1.6
    endloop
  endfacet
  facet normal 0 0 1
    outer loop
      vertex -26.829 -11.7845 1.6
      vertex -27.1 -11.1 1.6
      vertex -26.909 -11.6878 1.6
    endloop
  endfacet
  facet normal 0 0 1
    outer loop
      vertex -27.1 11.1 1.6
      vertex -27.0298 11.4681 1.6
      vertex -27.0686 11.3487 1.6
    endloop
  endfacet
  facet normal 0 0 1
    outer loop
      vertex -26.909 -11.6878 1.6
      vertex -27.1 -11.1 1.6
      vertex -26.9763 -11.5818 1.6
    endloop
  endfacet
  facet normal 0 0 1
    outer loop
      vertex -27.1 11.1 1.6
      vertex -27.0686 11.3487 1.6
      vertex -27.0921 11.2253 1.6
    endloop
  endfacet
  facet normal 0 0 1
    outer loop
      vertex -26.9763 -11.5818 1.6
      vertex -27.1 -11.1 1.6
      vertex -27.0298 -11.4681 1.6
    endloop
  endfacet
  facet normal 0 0 1
    outer loop
      vertex -27.0298 -11.4681 1.6
      vertex -27.1 -11.1 1.6
      vertex -27.0686 -11.3487 1.6
    endloop
  endfacet
  facet normal 0 0 1
    outer loop
      vertex -27.0686 -11.3487 1.6
      vertex -27.1 -11.1 1.6
      vertex -27.0921 -11.2253 1.6
    endloop
  endfacet
  facet normal 1 -0 0
    outer loop
      vertex 27.1 -11.1 1.6
      vertex 27.1 11.1 0
      vertex 27.1 11.1 1.6
    endloop
  endfacet
  facet normal 1 0 0
    outer loop
      vertex 27.1 11.1 0
      vertex 27.1 -11.1 1.6
      vertex 27.1 -11.1 0
    endloop
  endfacet
  facet normal -0.770516 -0.637421 0
    outer loop
      vertex -26.829 -11.7845 0
      vertex -26.909 -11.6878 1.6
      vertex -26.909 -11.6878 0
    endloop
  endfacet
  facet normal -0.770516 -0.637421 0
    outer loop
      vertex -26.909 -11.6878 1.6
      vertex -26.829 -11.7845 0
      vertex -26.829 -11.7845 1.6
    endloop
  endfacet
  facet normal -1 0 0
    outer loop
      vertex -27.1 -11.1 0
      vertex -27.1 11.1 1.6
      vertex -27.1 11.1 0
    endloop
  endfacet
  facet normal -1 -0 0
    outer loop
      vertex -27.1 11.1 1.6
      vertex -27.1 -11.1 0
      vertex -27.1 -11.1 1.6
    endloop
  endfacet
  facet normal 0.125334 0.992115 -0
    outer loop
      vertex 26.2874 12.0823 0
      vertex 26.1628 12.098 1.6
      vertex 26.2874 12.0823 1.6
    endloop
  endfacet
  facet normal 0.125334 0.992115 0
    outer loop
      vertex 26.1628 12.098 1.6
      vertex 26.2874 12.0823 0
      vertex 26.1628 12.098 0
    endloop
  endfacet
  facet normal 0 1 -0
    outer loop
      vertex 26.1628 12.098 0
      vertex -26.1628 12.098 1.6
      vertex 26.1628 12.098 1.6
    endloop
  endfacet
  facet normal 0 1 0
    outer loop
      vertex -26.1628 12.098 1.6
      vertex 26.1628 12.098 0
      vertex -26.1628 12.098 0
    endloop
  endfacet
  facet normal 0.982288 0.187378 0
    outer loop
      vertex 27.0921 11.2253 1.6
      vertex 27.0686 11.3487 0
      vertex 27.0686 11.3487 1.6
    endloop
  endfacet
  facet normal 0.982288 0.187378 0
    outer loop
      vertex 27.0686 11.3487 0
      vertex 27.0921 11.2253 1.6
      vertex 27.0921 11.2253 0
    endloop
  endfacet
  facet normal 0.998027 0.0627877 0
    outer loop
      vertex 27.1 11.1 1.6
      vertex 27.0921 11.2253 0
      vertex 27.0921 11.2253 1.6
    endloop
  endfacet
  facet normal 0.998027 0.0627877 0
    outer loop
      vertex 27.0921 11.2253 0
      vertex 27.1 11.1 1.6
      vertex 27.1 11.1 0
    endloop
  endfacet
  facet normal 0.125334 -0.992115 0
    outer loop
      vertex 26.1628 -12.098 0
      vertex 26.2874 -12.0823 1.6
      vertex 26.1628 -12.098 1.6
    endloop
  endfacet
  facet normal 0.125334 -0.992115 0
    outer loop
      vertex 26.2874 -12.0823 1.6
      vertex 26.1628 -12.098 0
      vertex 26.2874 -12.0823 0
    endloop
  endfacet
  facet normal -0.770516 0.637421 0
    outer loop
      vertex -26.909 11.6878 0
      vertex -26.829 11.7845 1.6
      vertex -26.829 11.7845 0
    endloop
  endfacet
  facet normal -0.770516 0.637421 0
    outer loop
      vertex -26.829 11.7845 1.6
      vertex -26.909 11.6878 0
      vertex -26.909 11.6878 1.6
    endloop
  endfacet
  facet normal -0.998027 0.0627877 0
    outer loop
      vertex -27.1 11.1 0
      vertex -27.0921 11.2253 1.6
      vertex -27.0921 11.2253 0
    endloop
  endfacet
  facet normal -0.998027 0.0627877 0
    outer loop
      vertex -27.0921 11.2253 1.6
      vertex -27.1 11.1 0
      vertex -27.1 11.1 1.6
    endloop
  endfacet
  facet normal 0.684545 0.72897 -0
    outer loop
      vertex 26.829 11.7845 0
      vertex 26.7374 11.8705 1.6
      vertex 26.829 11.7845 1.6
    endloop
  endfacet
  facet normal 0.684545 0.72897 0
    outer loop
      vertex 26.7374 11.8705 1.6
      vertex 26.829 11.7845 0
      vertex 26.7374 11.8705 0
    endloop
  endfacet
  facet normal -0.125334 0.992115 0
    outer loop
      vertex -26.1628 12.098 0
      vertex -26.2874 12.0823 1.6
      vertex -26.1628 12.098 1.6
    endloop
  endfacet
  facet normal -0.125334 0.992115 0
    outer loop
      vertex -26.2874 12.0823 1.6
      vertex -26.1628 12.098 0
      vertex -26.2874 12.0823 0
    endloop
  endfacet
  facet normal -0.368119 0.929779 0
    outer loop
      vertex -26.409 12.0511 0
      vertex -26.5258 12.0048 1.6
      vertex -26.409 12.0511 1.6
    endloop
  endfacet
  facet normal -0.368119 0.929779 0
    outer loop
      vertex -26.5258 12.0048 1.6
      vertex -26.409 12.0511 0
      vertex -26.5258 12.0048 0
    endloop
  endfacet
  facet normal 0.844324 -0.535833 0
    outer loop
      vertex 26.909 -11.6878 1.6
      vertex 26.9763 -11.5818 0
      vertex 26.9763 -11.5818 1.6
    endloop
  endfacet
  facet normal 0.844324 -0.535833 0
    outer loop
      vertex 26.9763 -11.5818 0
      vertex 26.909 -11.6878 1.6
      vertex 26.909 -11.6878 0
    endloop
  endfacet
  facet normal 0.368119 -0.929779 0
    outer loop
      vertex 26.409 -12.0511 0
      vertex 26.5258 -12.0048 1.6
      vertex 26.409 -12.0511 1.6
    endloop
  endfacet
  facet normal 0.368119 -0.929779 0
    outer loop
      vertex 26.5258 -12.0048 1.6
      vertex 26.409 -12.0511 0
      vertex 26.5258 -12.0048 0
    endloop
  endfacet
  facet normal -0.684545 0.72897 0
    outer loop
      vertex -26.7374 11.8705 0
      vertex -26.829 11.7845 1.6
      vertex -26.7374 11.8705 1.6
    endloop
  endfacet
  facet normal -0.684545 0.72897 0
    outer loop
      vertex -26.829 11.7845 1.6
      vertex -26.7374 11.8705 0
      vertex -26.829 11.7845 0
    endloop
  endfacet
  facet normal -0.587785 0.809017 0
    outer loop
      vertex -26.6358 11.9443 0
      vertex -26.7374 11.8705 1.6
      vertex -26.6358 11.9443 1.6
    endloop
  endfacet
  facet normal -0.587785 0.809017 0
    outer loop
      vertex -26.7374 11.8705 1.6
      vertex -26.6358 11.9443 0
      vertex -26.7374 11.8705 0
    endloop
  endfacet
  facet normal -0.481758 0.876304 0
    outer loop
      vertex -26.5258 12.0048 0
      vertex -26.6358 11.9443 1.6
      vertex -26.5258 12.0048 1.6
    endloop
  endfacet
  facet normal -0.481758 0.876304 0
    outer loop
      vertex -26.6358 11.9443 1.6
      vertex -26.5258 12.0048 0
      vertex -26.6358 11.9443 0
    endloop
  endfacet
  facet normal -0.951056 0.309017 0
    outer loop
      vertex -27.0686 11.3487 0
      vertex -27.0298 11.4681 1.6
      vertex -27.0298 11.4681 0
    endloop
  endfacet
  facet normal -0.951056 0.309017 0
    outer loop
      vertex -27.0298 11.4681 1.6
      vertex -27.0686 11.3487 0
      vertex -27.0686 11.3487 1.6
    endloop
  endfacet
  facet normal -0.982288 0.187378 0
    outer loop
      vertex -27.0921 11.2253 0
      vertex -27.0686 11.3487 1.6
      vertex -27.0686 11.3487 0
    endloop
  endfacet
  facet normal -0.982288 0.187378 0
    outer loop
      vertex -27.0686 11.3487 1.6
      vertex -27.0921 11.2253 0
      vertex -27.0921 11.2253 1.6
    endloop
  endfacet
  facet normal 0.481758 0.876304 -0
    outer loop
      vertex 26.6358 11.9443 0
      vertex 26.5258 12.0048 1.6
      vertex 26.6358 11.9443 1.6
    endloop
  endfacet
  facet normal 0.481758 0.876304 0
    outer loop
      vertex 26.5258 12.0048 1.6
      vertex 26.6358 11.9443 0
      vertex 26.5258 12.0048 0
    endloop
  endfacet
  facet normal 0.587785 0.809017 -0
    outer loop
      vertex 26.7374 11.8705 0
      vertex 26.6358 11.9443 1.6
      vertex 26.7374 11.8705 1.6
    endloop
  endfacet
  facet normal 0.587785 0.809017 0
    outer loop
      vertex 26.6358 11.9443 1.6
      vertex 26.7374 11.8705 0
      vertex 26.6358 11.9443 0
    endloop
  endfacet
  facet normal 0.770516 0.637421 0
    outer loop
      vertex 26.909 11.6878 1.6
      vertex 26.829 11.7845 0
      vertex 26.829 11.7845 1.6
    endloop
  endfacet
  facet normal 0.770516 0.637421 0
    outer loop
      vertex 26.829 11.7845 0
      vertex 26.909 11.6878 1.6
      vertex 26.909 11.6878 0
    endloop
  endfacet
  facet normal 0.844324 0.535833 0
    outer loop
      vertex 26.9763 11.5818 1.6
      vertex 26.909 11.6878 0
      vertex 26.909 11.6878 1.6
    endloop
  endfacet
  facet normal 0.844324 0.535833 0
    outer loop
      vertex 26.909 11.6878 0
      vertex 26.9763 11.5818 1.6
      vertex 26.9763 11.5818 0
    endloop
  endfacet
  facet normal 0.951056 0.309017 0
    outer loop
      vertex 27.0686 11.3487 1.6
      vertex 27.0298 11.4681 0
      vertex 27.0298 11.4681 1.6
    endloop
  endfacet
  facet normal 0.951056 0.309017 0
    outer loop
      vertex 27.0298 11.4681 0
      vertex 27.0686 11.3487 1.6
      vertex 27.0686 11.3487 0
    endloop
  endfacet
  facet normal -0.248692 0.968583 0
    outer loop
      vertex -26.2874 12.0823 0
      vertex -26.409 12.0511 1.6
      vertex -26.2874 12.0823 1.6
    endloop
  endfacet
  facet normal -0.248692 0.968583 0
    outer loop
      vertex -26.409 12.0511 1.6
      vertex -26.2874 12.0823 0
      vertex -26.409 12.0511 0
    endloop
  endfacet
  facet normal 0.481758 -0.876304 0
    outer loop
      vertex 26.5258 -12.0048 0
      vertex 26.6358 -11.9443 1.6
      vertex 26.5258 -12.0048 1.6
    endloop
  endfacet
  facet normal 0.481758 -0.876304 0
    outer loop
      vertex 26.6358 -11.9443 1.6
      vertex 26.5258 -12.0048 0
      vertex 26.6358 -11.9443 0
    endloop
  endfacet
  facet normal 0.684545 -0.72897 0
    outer loop
      vertex 26.7374 -11.8705 0
      vertex 26.829 -11.7845 1.6
      vertex 26.7374 -11.8705 1.6
    endloop
  endfacet
  facet normal 0.684545 -0.72897 0
    outer loop
      vertex 26.829 -11.7845 1.6
      vertex 26.7374 -11.8705 0
      vertex 26.829 -11.7845 0
    endloop
  endfacet
  facet normal 0.998027 -0.0627877 0
    outer loop
      vertex 27.0921 -11.2253 1.6
      vertex 27.1 -11.1 0
      vertex 27.1 -11.1 1.6
    endloop
  endfacet
  facet normal 0.998027 -0.0627877 0
    outer loop
      vertex 27.1 -11.1 0
      vertex 27.0921 -11.2253 1.6
      vertex 27.0921 -11.2253 0
    endloop
  endfacet
  facet normal -0.125334 -0.992115 0
    outer loop
      vertex -26.2874 -12.0823 0
      vertex -26.1628 -12.098 1.6
      vertex -26.2874 -12.0823 1.6
    endloop
  endfacet
  facet normal -0.125334 -0.992115 -0
    outer loop
      vertex -26.1628 -12.098 1.6
      vertex -26.2874 -12.0823 0
      vertex -26.1628 -12.098 0
    endloop
  endfacet
  facet normal -0.587785 -0.809017 0
    outer loop
      vertex -26.7374 -11.8705 0
      vertex -26.6358 -11.9443 1.6
      vertex -26.7374 -11.8705 1.6
    endloop
  endfacet
  facet normal -0.587785 -0.809017 -0
    outer loop
      vertex -26.6358 -11.9443 1.6
      vertex -26.7374 -11.8705 0
      vertex -26.6358 -11.9443 0
    endloop
  endfacet
  facet normal -0.904829 0.425774 0
    outer loop
      vertex -27.0298 11.4681 0
      vertex -26.9763 11.5818 1.6
      vertex -26.9763 11.5818 0
    endloop
  endfacet
  facet normal -0.904829 0.425774 0
    outer loop
      vertex -26.9763 11.5818 1.6
      vertex -27.0298 11.4681 0
      vertex -27.0298 11.4681 1.6
    endloop
  endfacet
  facet normal -0.844324 0.535833 0
    outer loop
      vertex -26.9763 11.5818 0
      vertex -26.909 11.6878 1.6
      vertex -26.909 11.6878 0
    endloop
  endfacet
  facet normal -0.844324 0.535833 0
    outer loop
      vertex -26.909 11.6878 1.6
      vertex -26.9763 11.5818 0
      vertex -26.9763 11.5818 1.6
    endloop
  endfacet
  facet normal 0.248692 0.968583 -0
    outer loop
      vertex 26.409 12.0511 0
      vertex 26.2874 12.0823 1.6
      vertex 26.409 12.0511 1.6
    endloop
  endfacet
  facet normal 0.248692 0.968583 0
    outer loop
      vertex 26.2874 12.0823 1.6
      vertex 26.409 12.0511 0
      vertex 26.2874 12.0823 0
    endloop
  endfacet
  facet normal 0.368119 0.929779 -0
    outer loop
      vertex 26.5258 12.0048 0
      vertex 26.409 12.0511 1.6
      vertex 26.5258 12.0048 1.6
    endloop
  endfacet
  facet normal 0.368119 0.929779 0
    outer loop
      vertex 26.409 12.0511 1.6
      vertex 26.5258 12.0048 0
      vertex 26.409 12.0511 0
    endloop
  endfacet
  facet normal 0.904829 0.425774 0
    outer loop
      vertex 27.0298 11.4681 1.6
      vertex 26.9763 11.5818 0
      vertex 26.9763 11.5818 1.6
    endloop
  endfacet
  facet normal 0.904829 0.425774 0
    outer loop
      vertex 26.9763 11.5818 0
      vertex 27.0298 11.4681 1.6
      vertex 27.0298 11.4681 0
    endloop
  endfacet
  facet normal 0.951056 -0.309017 0
    outer loop
      vertex 27.0298 -11.4681 1.6
      vertex 27.0686 -11.3487 0
      vertex 27.0686 -11.3487 1.6
    endloop
  endfacet
  facet normal 0.951056 -0.309017 0
    outer loop
      vertex 27.0686 -11.3487 0
      vertex 27.0298 -11.4681 1.6
      vertex 27.0298 -11.4681 0
    endloop
  endfacet
  facet normal 0.904829 -0.425774 0
    outer loop
      vertex 26.9763 -11.5818 1.6
      vertex 27.0298 -11.4681 0
      vertex 27.0298 -11.4681 1.6
    endloop
  endfacet
  facet normal 0.904829 -0.425774 0
    outer loop
      vertex 27.0298 -11.4681 0
      vertex 26.9763 -11.5818 1.6
      vertex 26.9763 -11.5818 0
    endloop
  endfacet
  facet normal -0.248692 -0.968583 0
    outer loop
      vertex -26.409 -12.0511 0
      vertex -26.2874 -12.0823 1.6
      vertex -26.409 -12.0511 1.6
    endloop
  endfacet
  facet normal -0.248692 -0.968583 -0
    outer loop
      vertex -26.2874 -12.0823 1.6
      vertex -26.409 -12.0511 0
      vertex -26.2874 -12.0823 0
    endloop
  endfacet
  facet normal -0.368119 -0.929779 0
    outer loop
      vertex -26.5258 -12.0048 0
      vertex -26.409 -12.0511 1.6
      vertex -26.5258 -12.0048 1.6
    endloop
  endfacet
  facet normal -0.368119 -0.929779 -0
    outer loop
      vertex -26.409 -12.0511 1.6
      vertex -26.5258 -12.0048 0
      vertex -26.409 -12.0511 0
    endloop
  endfacet
  facet normal -0.481758 -0.876304 0
    outer loop
      vertex -26.6358 -11.9443 0
      vertex -26.5258 -12.0048 1.6
      vertex -26.6358 -11.9443 1.6
    endloop
  endfacet
  facet normal -0.481758 -0.876304 -0
    outer loop
      vertex -26.5258 -12.0048 1.6
      vertex -26.6358 -11.9443 0
      vertex -26.5258 -12.0048 0
    endloop
  endfacet
  facet normal -0.684545 -0.72897 0
    outer loop
      vertex -26.829 -11.7845 0
      vertex -26.7374 -11.8705 1.6
      vertex -26.829 -11.7845 1.6
    endloop
  endfacet
  facet normal -0.684545 -0.72897 -0
    outer loop
      vertex -26.7374 -11.8705 1.6
      vertex -26.829 -11.7845 0
      vertex -26.7374 -11.8705 0
    endloop
  endfacet
  facet normal 0.248692 -0.968583 0
    outer loop
      vertex 26.2874 -12.0823 0
      vertex 26.409 -12.0511 1.6
      vertex 26.2874 -12.0823 1.6
    endloop
  endfacet
  facet normal 0.248692 -0.968583 0
    outer loop
      vertex 26.409 -12.0511 1.6
      vertex 26.2874 -12.0823 0
      vertex 26.409 -12.0511 0
    endloop
  endfacet
  facet normal 0.587785 -0.809017 0
    outer loop
      vertex 26.6358 -11.9443 0
      vertex 26.7374 -11.8705 1.6
      vertex 26.6358 -11.9443 1.6
    endloop
  endfacet
  facet normal 0.587785 -0.809017 0
    outer loop
      vertex 26.7374 -11.8705 1.6
      vertex 26.6358 -11.9443 0
      vertex 26.7374 -11.8705 0
    endloop
  endfacet
  facet normal 0.770516 -0.637421 0
    outer loop
      vertex 26.829 -11.7845 1.6
      vertex 26.909 -11.6878 0
      vertex 26.909 -11.6878 1.6
    endloop
  endfacet
  facet normal 0.770516 -0.637421 0
    outer loop
      vertex 26.909 -11.6878 0
      vertex 26.829 -11.7845 1.6
      vertex 26.829 -11.7845 0
    endloop
  endfacet
  facet normal 0.982288 -0.187378 0
    outer loop
      vertex 27.0686 -11.3487 1.6
      vertex 27.0921 -11.2253 0
      vertex 27.0921 -11.2253 1.6
    endloop
  endfacet
  facet normal 0.982288 -0.187378 0
    outer loop
      vertex 27.0921 -11.2253 0
      vertex 27.0686 -11.3487 1.6
      vertex 27.0686 -11.3487 0
    endloop
  endfacet
  facet normal -0.844324 -0.535833 0
    outer loop
      vertex -26.909 -11.6878 0
      vertex -26.9763 -11.5818 1.6
      vertex -26.9763 -11.5818 0
    endloop
  endfacet
  facet normal -0.844324 -0.535833 0
    outer loop
      vertex -26.9763 -11.5818 1.6
      vertex -26.909 -11.6878 0
      vertex -26.909 -11.6878 1.6
    endloop
  endfacet
  facet normal -0.904829 -0.425774 0
    outer loop
      vertex -26.9763 -11.5818 0
      vertex -27.0298 -11.4681 1.6
      vertex -27.0298 -11.4681 0
    endloop
  endfacet
  facet normal -0.904829 -0.425774 0
    outer loop
      vertex -27.0298 -11.4681 1.6
      vertex -26.9763 -11.5818 0
      vertex -26.9763 -11.5818 1.6
    endloop
  endfacet
  facet normal -1 0 0
    outer loop
      vertex 25.5 5.4 1.6
      vertex 25.5 9.4 3.4
      vertex 25.5 9.4 1.6
    endloop
  endfacet
  facet normal -1 -0 0
    outer loop
      vertex 25.5 9.4 3.4
      vertex 25.5 5.4 1.6
      vertex 25.5 5.4 3.4
    endloop
  endfacet
  facet normal -0 0 1
    outer loop
      vertex 25.5 9.4 3.4
      vertex 28 5.4 3.4
      vertex 28 9.4 3.4
    endloop
  endfacet
  facet normal 0 0 1
    outer loop
      vertex 28 5.4 3.4
      vertex 25.5 9.4 3.4
      vertex 25.5 5.4 3.4
    endloop
  endfacet
  facet normal 1 -0 0
    outer loop
      vertex 26.7 5.4 2.2
      vertex 26.7 9.4 1.6
      vertex 26.7 9.4 2.2
    endloop
  endfacet
  facet normal 1 0 0
    outer loop
      vertex 26.7 9.4 1.6
      vertex 26.7 5.4 2.2
      vertex 26.7 5.4 1.6
    endloop
  endfacet
  facet normal 0 -1 0
    outer loop
      vertex 25.5 5.4 3.4
      vertex 26.7 5.4 2.2
      vertex 28 5.4 3.4
    endloop
  endfacet
  facet normal 0 -1 0
    outer loop
      vertex 25.5 5.4 1.6
      vertex 26.7 5.4 2.2
      vertex 25.5 5.4 3.4
    endloop
  endfacet
  facet normal 0 -1 -0
    outer loop
      vertex 26.7 5.4 2.2
      vertex 25.5 5.4 1.6
      vertex 26.7 5.4 1.6
    endloop
  endfacet
  facet normal 0 -1 -0
    outer loop
      vertex 28 5.4 3.4
      vertex 26.7 5.4 2.2
      vertex 28 5.4 2.2
    endloop
  endfacet
  facet normal 0 1 0
    outer loop
      vertex 26.7 9.4 2.2
      vertex 28 9.4 3.4
      vertex 28 9.4 2.2
    endloop
  endfacet
  facet normal 0 1 0
    outer loop
      vertex 28 9.4 3.4
      vertex 26.7 9.4 2.2
      vertex 25.5 9.4 3.4
    endloop
  endfacet
  facet normal 0 1 0
    outer loop
      vertex 25.5 9.4 1.6
      vertex 26.7 9.4 2.2
      vertex 26.7 9.4 1.6
    endloop
  endfacet
  facet normal 0 1 0
    outer loop
      vertex 26.7 9.4 2.2
      vertex 25.5 9.4 1.6
      vertex 25.5 9.4 3.4
    endloop
  endfacet
  facet normal -1 0 0
    outer loop
      vertex 25.5 -9.4 1.6
      vertex 25.5 -5.4 3.4
      vertex 25.5 -5.4 1.6
    endloop
  endfacet
  facet normal -1 -0 0
    outer loop
      vertex 25.5 -5.4 3.4
      vertex 25.5 -9.4 1.6
      vertex 25.5 -9.4 3.4
    endloop
  endfacet
  facet normal -0 0 1
    outer loop
      vertex 25.5 -5.4 3.4
      vertex 28 -9.4 3.4
      vertex 28 -5.4 3.4
    endloop
  endfacet
  facet normal 0 0 1
    outer loop
      vertex 28 -9.4 3.4
      vertex 25.5 -5.4 3.4
      vertex 25.5 -9.4 3.4
    endloop
  endfacet
  facet normal 1 -0 0
    outer loop
      vertex 26.7 -9.4 2.2
      vertex 26.7 -5.4 1.6
      vertex 26.7 -5.4 2.2
    endloop
  endfacet
  facet normal 1 0 0
    outer loop
      vertex 26.7 -5.4 1.6
      vertex 26.7 -9.4 2.2
      vertex 26.7 -9.4 1.6
    endloop
  endfacet
  facet normal 0 1 0
    outer loop
      vertex 26.7 -5.4 2.2
      vertex 28 -5.4 3.4
      vertex 28 -5.4 2.2
    endloop
  endfacet
  facet normal 0 1 0
    outer loop
      vertex 28 -5.4 3.4
      vertex 26.7 -5.4 2.2
      vertex 25.5 -5.4 3.4
    endloop
  endfacet
  facet normal 0 1 0
    outer loop
      vertex 25.5 -5.4 1.6
      vertex 26.7 -5.4 2.2
      vertex 26.7 -5.4 1.6
    endloop
  endfacet
  facet normal 0 1 0
    outer loop
      vertex 26.7 -5.4 2.2
      vertex 25.5 -5.4 1.6
      vertex 25.5 -5.4 3.4
    endloop
  endfacet
  facet normal 0 -1 0
    outer loop
      vertex 25.5 -9.4 3.4
      vertex 26.7 -9.4 2.2
      vertex 28 -9.4 3.4
    endloop
  endfacet
  facet normal 0 -1 0
    outer loop
      vertex 25.5 -9.4 1.6
      vertex 26.7 -9.4 2.2
      vertex 25.5 -9.4 3.4
    endloop
  endfacet
  facet normal 0 -1 -0
    outer loop
      vertex 26.7 -9.4 2.2
      vertex 25.5 -9.4 1.6
      vertex 26.7 -9.4 1.6
    endloop
  endfacet
  facet normal 0 -1 -0
    outer loop
      vertex 28 -9.4 3.4
      vertex 26.7 -9.4 2.2
      vertex 28 -9.4 2.2
    endloop
  endfacet
  facet normal 1 -0 0
    outer loop
      vertex 28 5.4 3.4
      vertex 28 9.4 2.2
      vertex 28 9.4 3.4
    endloop
  endfacet
  facet normal 1 0 0
    outer loop
      vertex 28 9.4 2.2
      vertex 28 5.4 3.4
      vertex 28 5.4 2.2
    endloop
  endfacet
  facet normal 0 0 -1
    outer loop
      vertex 26.7 5.4 2.2
      vertex 28 9.4 2.2
      vertex 28 5.4 2.2
    endloop
  endfacet
  facet normal -0 0 -1
    outer loop
      vertex 28 9.4 2.2
      vertex 26.7 5.4 2.2
      vertex 26.7 9.4 2.2
    endloop
  endfacet
  facet normal 1 -0 0
    outer loop
      vertex 28 -9.4 3.4
      vertex 28 -5.4 2.2
      vertex 28 -5.4 3.4
    endloop
  endfacet
  facet normal 1 0 0
    outer loop
      vertex 28 -5.4 2.2
      vertex 28 -9.4 3.4
      vertex 28 -9.4 2.2
    endloop
  endfacet
  facet normal 0 0 -1
    outer loop
      vertex 26.7 -9.4 2.2
      vertex 28 -5.4 2.2
      vertex 28 -9.4 2.2
    endloop
  endfacet
  facet normal -0 0 -1
    outer loop
      vertex 28 -5.4 2.2
      vertex 26.7 -9.4 2.2
      vertex 26.7 -5.4 2.2
    endloop
  endfacet
endsolid OpenSCAD_Model
